<svg xmlns="http://www.w3.org/2000/svg" width="64" height="64" fill="none" stroke="currentColor" stroke-linecap="round" stroke-linejoin="round" stroke-width="2" role="img" viewBox="0 0 64 64"><title>Nest</title><path d="M6 28C6 38 18 47 32 47S58 38 58 28Z"/><path d="M13 24.5 17 31.5"/><path d="M30 24.5 34 31.5"/><path d="M47 24.5 51 31.5"/><path d="M25 33C27.5 33 29.5 36.5 29.5 40 29.5 43 27.5 45 25 45S20.5 43 20.5 40C20.5 36.5 22.5 33 25 33"/><path d="M40 33C42.5 33 44.5 36.5 44.5 40 44.5 43 42.5 45 40 45S35.5 43 35.5 40C35.5 36.5 37.5 33 40 33"/></svg>