<svg xmlns="http://www.w3.org/2000/svg" style="display:none" data-version="0.2.1" fill="none" stroke="currentColor" stroke-width="2" stroke-linecap="round" stroke-linejoin="round">
<!-- GENERADO por scripts/build.mjs · uso: <svg><use href="sprite.svg#ai-hen"/></svg> -->
<symbol id="ai-chick" viewBox="0 0 64 64"><title>Chick</title><path d="M29 10C23 10 18 14 18 20C18 24 19 27 21 29C18 32 17 37 19 41C22 47 28 50 34 50C42 50 48 45 49 38C50 31 47 24 42 20C39 14 35 10 29 10Z"/><path d="M30 10C32.5 5.5 29.5 3 26.5 4.5"/><path d="M18 17.88L12.48 20L18 22.13Z"/><circle cx="24" cy="19" r="1.25" fill="currentColor" stroke="none"/><path d="M44 38C41.5 34 37 33 33 35"/><path d="M42.5 42C40 38.5 36.5 37.5 33.5 39"/><path d="M49 36C52.5 34.5 54.5 32 55 28.5"/><path d="M36.5 49.5L36.5 54"/><path d="M33.5 57L36.5 54L39.5 57"/><path d="M30 49.5L30 54"/><path d="M27 57L30 54L33 57"/></symbol>
<symbol id="ai-hen" viewBox="0 0 64 64"><title>Hen</title><path d="M26 20C24 12 14 12 12 19C12 23 16 24 21 24C19 31 24 48 34 50C45 50 53 42 52 31C40 30 32 27 26 20Z"/><path d="M23.5 14.5C24 10.5 20 10 20 13.5C20 9 16 9 16 13C16 10.5 14 11 14 14.5"/><path d="M12.5 16.5L6 19L12.5 21.5Z"/><circle cx="17" cy="17.5" r="1.25" fill="currentColor" stroke="none"/><path d="M46 40C42.85 33.7 34.45 31.6 27.1 35.8"/><path d="M50 30C52.5 28 55.5 25.5 57.5 21.5"/><path d="M50 31.5C52.5 30 55.5 28.5 58 25.5"/><path d="M50 33C52.5 32 55.5 31.5 58 29.5"/><path d="M38.7 49.5L38.7 56.5"/><path d="M29.6 48.7L29.6 56.5"/></symbol>
<symbol id="ai-nest" viewBox="0 0 64 64"><title>Nest</title><path d="M6 28C6 38 18 47 32 47C46 47 58 38 58 28Z"/><path d="M13 24.5L17 31.5"/><path d="M30 24.5L34 31.5"/><path d="M47 24.5L51 31.5"/><path d="M25 33C27.5 33 29.5 36.5 29.5 40C29.5 43 27.5 45 25 45C22.5 45 20.5 43 20.5 40C20.5 36.5 22.5 33 25 33Z"/><path d="M40 33C42.5 33 44.5 36.5 44.5 40C44.5 43 42.5 45 40 45C37.5 45 35.5 43 35.5 40C35.5 36.5 37.5 33 40 33Z"/></symbol>
<symbol id="ai-rooster" viewBox="0 0 64 64"><title>Rooster</title><path d="M22 13C18 13 16 16 16 19C16 22 18 24 19 27C17 31 16 36 17 41C18 47 24 50 31 50C38 50 44 47 47 42C49 39 49 35 47 32C42 28 35 25 29 26C27 22 27 17 24 13Z"/><path d="M28 15C28.5 8 23 7 23 13C23 5 17.5 4.5 17.5 12.5C17 7.5 14 8.5 14.5 15"/><path d="M16 21.5C12.5 24 12.5 28.5 15.5 29Z"/><path d="M16 16.5L9.5 19L16 21.5Z"/><circle cx="20.5" cy="17.5" r="1.25" fill="currentColor" stroke="none"/><path d="M41 37C38 31 30 29 23 33"/><path d="M38.5 41C35.5 36 30 34 25 36"/><path d="M45 31C50 28 54 23 56 17"/><path d="M46.5 33C52 31 56 27 58 22"/><path d="M34 49.5L34 54.5"/><path d="M30.5 58L34 54.5L37.5 58"/><path d="M26 49.5L26 54.5"/><path d="M22.5 58L26 54.5L29.5 58"/></symbol>
<symbol id="ai-bell-drinker" viewBox="0 0 64 64"><title>Bell Drinker</title><circle cx="32" cy="7" r="3"/><path d="M32 10L32 17"/><path d="M15 42C15 28 22 17 32 17C42 17 49 28 49 42"/><path d="M11 42C11 48 15 52 21 52L43 52C49 52 53 48 53 42Z"/></symbol>
<symbol id="ai-bucket" viewBox="0 0 64 64"><title>Bucket</title><path d="M13.5 20C13.5 4 50.5 4 50.5 20"/><path d="M13 20C13 17.8 21.5 16 32 16C42.5 16 51 17.8 51 20C51 22.2 42.5 24 32 24C21.5 24 13 22.2 13 20Z"/><path d="M13 20L19 51C19.4 53.3 21.4 55 23.8 55L40.2 55C42.6 55 44.6 53.3 45 51L51 20"/></symbol>
<symbol id="ai-nipple-drinker" viewBox="0 0 64 64"><title>Nipple Drinker</title><path d="M12 7L52 7C54.75 7 57 9.25 57 12L57 12C57 14.75 54.75 17 52 17L12 17C9.25 17 7 14.75 7 12L7 12C7 9.25 9.25 7 12 7Z"/><path d="M24 17L24 28"/><path d="M40 17L40 28"/><path d="M24 28L29 37L35 37L40 28"/><path d="M32 37L32 41"/><path d="M32 44C33.92 46.4 35.83 49.03 35.83 51.67C35.83 53.77 34.11 55.5 32 55.5C29.89 55.5 28.17 53.77 28.17 51.67C28.17 49.03 30.08 46.4 32 44Z"/></symbol>
<symbol id="ai-water-drop" viewBox="0 0 64 64"><title>Water Drop</title><path d="M32 6C40 16 48 27 48 38C48 46.8 40.8 54 32 54C23.2 54 16 46.8 16 38C16 27 24 16 32 6Z"/></symbol>
<symbol id="ai-clipboard" viewBox="0 0 64 64"><title>Clipboard</title><path d="M24 12L18 12C15.8 12 14 13.8 14 16L14 54C14 56.2 15.8 58 18 58L46 58C48.2 58 50 56.2 50 54L50 16C50 13.8 48.2 12 46 12L40 12"/><path d="M25 15.5C25 9 28 5.5 32 5.5C36 5.5 39 9 39 15.5Z"/><path d="M20 30L23 33L29 27"/><path d="M33 31L44 31"/><path d="M20 43L23 46L29 40"/><path d="M33 44L44 44"/></symbol>
<symbol id="ai-clock" viewBox="0 0 64 64"><title>Clock</title><circle cx="32" cy="32" r="23"/><path d="M32 17L32 33L43 39"/></symbol>
<symbol id="ai-vaccine-bottle" viewBox="0 0 64 64"><title>Vaccine Bottle</title><path d="M25 7L39 7L39 15L25 15Z"/><path d="M28 15L28 19.5C22.5 21.5 19 26 19 31.5L19 50C19 52.8 21.2 55 24 55L40 55C42.8 55 45 52.8 45 50L45 31.5C45 26 41.5 21.5 36 19.5L36 15"/><path d="M19 34C25 31.5 39 31.5 45 34"/><path d="M32 40L32 48M28 44L36 44"/></symbol>
<symbol id="ai-egg" viewBox="0 0 64 64"><title>Egg</title><path d="M32 8C42 8 50 22 50 36C50 48 42 56 32 56C22 56 14 48 14 36C14 22 22 8 32 8Z"/></symbol>
</svg>
